<svg width="92" height="51" viewBox="0 0 92 51" fill="none" xmlns="http://www.w3.org/2000/svg">
<path d="M5.16325 47.3755H3.71976V12.9932H5.16325C6.01983 12.9932 6.6649 13.2659 7.10112 13.8085C7.59022 14.3939 7.83609 15.3267 7.83873 16.5991V44.1626C7.83344 44.6811 7.75677 45.1436 7.60344 45.5418C7.15136 46.7634 6.33708 47.3728 5.16325 47.3728M5.16325 3.73412C5.85063 3.73412 6.40846 3.96399 6.83675 4.42107C7.29412 4.91289 7.52677 5.63994 7.52677 6.60487C7.52677 7.18223 7.45803 7.67138 7.3232 8.06698C6.95572 9.12547 6.23397 9.65739 5.16061 9.65739H3.71712V3.73412H5.16325ZM11.6272 16.5777H11.6246C11.6114 16.1126 11.5796 15.6742 11.5109 15.2866C11.3417 14.3538 11.08 13.5893 10.7178 12.9959C10.1811 12.1272 9.53338 11.5392 8.76933 11.2425C9.23199 11.0286 9.6312 10.7319 9.97488 10.339C10.7892 9.40346 11.1963 8.15519 11.1963 6.60487C11.1963 5.65597 11.0853 4.83538 10.8685 4.14308C10.4666 2.85472 9.79775 1.90047 8.85922 1.28302C7.76206 0.553302 6.52743 0.18978 5.16325 0.18978H0V50.8289H6.39524C7.25975 50.8289 8.12954 50.559 9.00727 50.0163C9.78718 49.5352 10.39 48.8964 10.8156 48.0972C11.3629 47.0734 11.6325 45.8305 11.6325 44.3604C11.6325 44.2722 11.6219 16.575 11.6219 16.575" fill="white"/>
<path d="M21.8771 5.59717L23.1593 14.736H20.5948L21.8771 5.59717ZM20.0687 18.1414H23.6748L24.4917 23.4659H28.1137L24.2802 0.283333H19.5162L15.6325 23.4686H19.228L20.0714 18.144L20.0687 18.1414Z" fill="white"/>
<path d="M34.5803 22.7469C35.4686 23.4204 36.5896 23.7626 37.9484 23.7626C38.6781 23.7626 39.3179 23.6744 39.8705 23.4953C40.8962 23.1799 41.6867 22.6319 42.2498 21.8541C43.1038 20.7074 43.5188 19.3308 43.4924 17.7083C43.4765 17.0454 43.3047 16.305 42.9769 15.4818C42.8447 15.145 42.6649 14.7814 42.4508 14.3858C41.9802 13.5492 41.3219 12.6992 40.4759 11.8332C40.2168 11.5632 39.6854 11.0874 38.879 10.4112C38.1996 9.84182 37.6894 9.35267 37.3457 8.93569C36.4415 7.83443 35.9868 6.75456 35.9868 5.69607C35.9868 5.01981 36.1216 4.45047 36.3886 3.99607C36.7244 3.42673 37.2056 3.1434 37.8348 3.1434C38.4296 3.1434 38.887 3.33852 39.2069 3.7261C39.651 4.25267 39.918 4.99308 40.0106 5.93931L43.3285 5.32987C43.236 4.32217 42.9822 3.4294 42.5618 2.65425C42.1441 1.87642 41.5942 1.27233 40.9147 0.839308C40.037 0.283333 38.9795 0.00534591 37.7502 0.00534591C36.5208 0.00534591 35.3946 0.331447 34.5301 0.983648C33.1315 2.06887 32.4283 3.6673 32.4283 5.77893C32.4283 6.94701 32.6847 8.03223 33.195 9.03192C33.6656 9.92469 34.4719 10.9244 35.6219 12.0443C36.9861 13.3461 38.0145 14.3297 38.7019 14.9819C39.5664 15.9308 39.9947 16.8958 39.9947 17.866C39.9947 18.5289 39.8784 19.0368 39.6431 19.4057C39.191 20.1247 38.5856 20.4989 37.8321 20.5256C37.2954 20.5497 36.8249 20.3332 36.4098 19.8761C35.8493 19.272 35.4924 18.3017 35.3417 16.9519L32.0582 17.1764C32.1243 18.4247 32.3781 19.5233 32.8116 20.4802C33.2479 21.4318 33.8321 22.1909 34.5724 22.7495" fill="white"/>
<path d="M58.7601 19.975H52.3754V13.6294H57.039V10.1332H52.3754V3.77956H58.7601V0.283333H48.9147V23.4686H58.7601V19.975Z" fill="white"/>
<path d="M20.6953 47.8726C20.0846 47.8726 19.614 47.6374 19.2888 47.1723C19.0033 46.7767 18.8605 46.2635 18.8605 45.6354C18.8605 44.9297 19.0456 44.1679 19.4131 43.3447C19.6325 42.9571 19.8493 42.5882 20.0687 42.2407C21.0258 43.9434 21.9722 45.3895 22.9081 46.5736C22.1203 47.4343 21.3853 47.87 20.6953 47.87M19.9048 30.7684C20.2485 30.1456 20.7191 29.8302 21.3139 29.8302C22.0093 29.8302 22.5089 30.1991 22.8103 30.9502C22.9346 31.1854 22.998 31.5248 22.998 31.9632C22.998 32.5994 22.7284 33.2649 22.1943 33.9599L21.4673 34.9008L21.002 35.4969C20.8592 35.6759 20.7112 35.8577 20.5605 36.0448C19.8572 34.3929 19.5056 33.2115 19.5056 32.5085C19.5056 31.8536 19.6405 31.2763 19.9075 30.7657M29.15 40.252L26.0172 39.5785C25.7079 41.0272 25.2664 42.3877 24.7006 43.6574C23.7356 42.2942 22.8738 40.8294 22.1097 39.2711C22.6808 38.5093 23.3047 37.6914 23.9841 36.82L24.7376 35.855C25.6999 34.6415 26.1864 33.3398 26.1864 31.9498C26.1864 31.188 26.0198 30.4797 25.692 29.8275C25.2743 29.0123 24.6742 28.3734 23.8942 27.911C23.1143 27.4486 22.2551 27.2187 21.3166 27.2187C20.4759 27.2187 19.7118 27.4058 19.0139 27.7774C18.1335 28.2184 17.4646 28.8813 17.002 29.7634C16.5473 30.6 16.3252 31.5222 16.3252 32.5219C16.3252 33.0725 16.3807 33.6124 16.4865 34.147C16.5869 34.6388 16.7588 35.1868 17.002 35.7989C17.121 36.1116 17.351 36.6355 17.6946 37.3786L18.4137 38.9931C18.1044 39.4208 17.7978 39.8805 17.4964 40.3643C16.9491 41.2624 16.6292 41.8104 16.5261 42.0055C15.9577 43.2671 15.6722 44.4726 15.6722 45.6274C15.6722 46.7821 15.9683 47.87 16.5658 48.7921C17.5149 50.2569 18.8896 50.9893 20.7006 50.9893C22.2604 50.9893 23.725 50.2783 25.0892 48.8563C26.5116 50.0858 27.8942 50.698 29.2373 50.698V47.5198C28.5737 47.5198 27.8017 47.1162 26.9108 46.3116C27.8493 44.6678 28.5948 42.647 29.1474 40.2494" fill="white"/>
<path d="M40.698 45.4162C40.2459 46.6377 39.4316 47.2498 38.2578 47.2498H36.8116V40.3322H38.2578C39.1117 40.3322 39.7594 40.6022 40.1956 41.1475C40.69 41.7409 40.9359 42.6871 40.9359 43.9835C40.9359 44.5234 40.8566 45.0019 40.698 45.4162ZM36.8143 31.0651H38.2604C38.9478 31.0651 39.503 31.2923 39.9313 31.7494C40.3939 32.2412 40.6239 32.9736 40.6239 33.9358C40.6239 34.5159 40.5552 35.0024 40.423 35.3953C40.0529 36.4564 39.3311 36.9884 38.2604 36.9884H36.8143V31.0624V31.0651ZM43.8149 40.3322C43.2783 39.4582 42.6279 38.8728 41.8665 38.5788C42.3265 38.3649 42.731 38.0682 43.072 37.6726C43.8863 36.7344 44.2935 35.4888 44.2935 33.9358C44.2935 32.9869 44.1851 32.1664 43.9656 31.4687C43.5611 30.1803 42.8923 29.2261 41.9564 28.6086C40.8592 27.8816 39.6246 27.5127 38.2578 27.5127H33.0892V50.7033H39.4898C40.3516 50.7033 41.2267 50.4307 42.1071 49.8907C42.8843 49.4042 43.4871 48.7654 43.918 47.9715C44.46 46.9451 44.735 45.6995 44.735 44.2321C44.735 43.6387 44.6927 43.1014 44.6107 42.6203C44.4415 41.6874 44.1771 40.923 43.8176 40.3296" fill="white"/>
<path d="M56.1137 45.4215C56.1137 45.9722 55.9233 46.4426 55.5426 46.8355C55.1593 47.2231 54.694 47.4182 54.1414 47.4182C53.5889 47.4182 53.1289 47.2231 52.7403 46.8355C52.3463 46.4426 52.1533 45.9722 52.1533 45.4215V32.733C52.1533 32.1744 52.3463 31.7013 52.7403 31.319C53.1289 30.9288 53.5968 30.7363 54.1414 30.7363C54.6861 30.7363 55.1619 30.9288 55.5426 31.319C55.9233 31.7013 56.1137 32.1744 56.1137 32.733V45.4215ZM54.226 27.2401C52.735 27.2401 51.4501 27.78 50.3794 28.8599C49.3087 29.9425 48.772 31.2522 48.772 32.7972V45.4456C48.772 46.9825 49.3007 48.2923 50.3635 49.3748C51.4263 50.4601 52.7112 51 54.2287 51C55.7462 51 57.0416 50.4627 58.115 49.3829C59.1857 48.3003 59.7251 46.9906 59.7251 45.4456V32.7972C59.7251 31.2602 59.191 29.9505 58.1203 28.8679C57.0496 27.7827 55.7541 27.2401 54.2287 27.2401" fill="white"/>
<path d="M71.265 45.4215C71.265 45.9722 71.0747 46.4426 70.694 46.8355C70.3106 47.2231 69.8453 47.4182 69.2928 47.4182C68.7403 47.4182 68.2829 47.2231 67.8916 46.8355C67.5003 46.4426 67.3073 45.9748 67.3073 45.4215V5.49025C67.3073 4.9316 67.5003 4.45849 67.8916 4.07359C68.2829 3.68868 68.7482 3.49355 69.2928 3.49355C69.8374 3.49355 70.3106 3.68868 70.694 4.07359C71.0747 4.45849 71.265 4.9316 71.265 5.49025V45.4215ZM69.38 0C67.889 0 66.6067 0.539937 65.5334 1.61981C64.46 2.69969 63.9233 4.01211 63.9233 5.5544V45.4429C63.9233 46.9772 64.4547 48.2896 65.5122 49.3722C66.575 50.4574 67.8625 50.9973 69.3774 50.9973C70.8923 50.9973 72.1904 50.4601 73.2637 49.3802C74.3344 48.2976 74.8711 46.9879 74.8711 45.4429V5.5544C74.8711 4.0228 74.3371 2.71038 73.2664 1.62516C72.1983 0.54261 70.9002 0 69.3748 0" fill="white"/>
<path d="M88.542 0.275314V33.877L83.1699 0.275314H79.2835V50.7247H82.7416V13.6748L88.1322 50.7247H92V0.275314H88.542Z" fill="white"/>
</svg>
